# xmcd
#
# Track frame offsets:
#	150
#	23959
#	37785
#	49424
#	68702
#	92511
#	106337
#	117976
#
# Disc length: 1830 seconds
#
# Revision: 0
# Processed by: cddbd v1.5PL3 Copyright (c) Steve Scherf et al.
# Submitted via: audiograbber 1.83.01
#
DISCID=60072408
DTITLE=Alan Jackson - Karaoke KBA28472
DYEAR=1900
DGENRE=
TTITLE0=Alan Jackson - Where Were You (When The World Stop
TTITLE1=Alan Jackson - Don't Rock The Jukebox
TTITLE2=Alan Jackson - Chattahoochee
TTITLE3=Alan Jackson - Gone Country
TTITLE4=Alan Jackson (Vocal) - Where Were You (When The World Stop
TTITLE5=Alan Jackson (Vocal) - Don't Rock The Jukebox
TTITLE6=Alan Jackson (Vocal) - Chattahoochee
TTITLE7=Alan Jackson (Vocal) - Gone Country
EXTD=
EXTT0=
EXTT1=
EXTT2=
EXTT3=
EXTT4=
EXTT5=
EXTT6=
EXTT7=
PLAYORDER=
